<svg xmlns="http://www.w3.org/2000/svg" xmlns:xlink="http://www.w3.org/1999/xlink" width="300" zoomAndPan="magnify" viewBox="0 0 224.87999 225" height="300" preserveAspectRatio="xMidYMid meet" version="1.0"><defs><clipPath id="72a828863a"><path d="M 0 0.0585938 L 224.761719 0.0585938 L 224.761719 224.9375 L 0 224.9375 Z M 0 0.0585938 " clip-rule="nonzero"/></clipPath><clipPath id="a45792df3e"><path d="M 37 48.34375 L 135 48.34375 L 135 203.09375 L 37 203.09375 Z M 37 48.34375 " clip-rule="nonzero"/></clipPath><clipPath id="df89210a19"><path d="M 159.046875 71.226562 L 196.289062 71.226562 L 196.289062 130.730469 L 159.046875 130.730469 Z M 159.046875 71.226562 " clip-rule="nonzero"/></clipPath><clipPath id="3fea117c01"><path d="M 193 73 L 196.289062 73 L 196.289062 129 L 193 129 Z M 193 73 " clip-rule="nonzero"/></clipPath><clipPath id="3f3bf62bce"><path d="M 177.355469 71.226562 L 196.289062 71.226562 L 196.289062 130.730469 L 177.355469 130.730469 Z M 177.355469 71.226562 " clip-rule="nonzero"/></clipPath></defs><g clip-path="url(#72a828863a)"><path fill="#ffffff" d="M 0 0.0585938 L 224.878906 0.0585938 L 224.878906 224.941406 L 0 224.941406 Z M 0 0.0585938 " fill-opacity="1" fill-rule="nonzero"/><path fill="#ffffff" d="M 0 0.0585938 L 224.878906 0.0585938 L 224.878906 224.941406 L 0 224.941406 Z M 0 0.0585938 " fill-opacity="1" fill-rule="nonzero"/></g><g clip-path="url(#a45792df3e)"><path fill="#358c9c" d="M 71.796875 140.1875 L 43.296875 168.6875 C 35.421875 176.5625 35.421875 189.320312 43.296875 197.195312 C 51.164062 205.0625 63.921875 205.0625 71.796875 197.195312 L 128.800781 140.1875 C 136.675781 132.316406 136.675781 119.554688 128.800781 111.683594 L 71.796875 54.675781 C 63.921875 46.804688 51.164062 46.804688 43.296875 54.675781 C 35.421875 62.550781 35.421875 75.308594 43.296875 83.183594 L 71.796875 111.683594 C 79.667969 119.554688 79.667969 132.316406 71.796875 140.1875 " fill-opacity="1" fill-rule="nonzero"/></g><path fill="#358c9c" d="M 42.445312 131.351562 L 31.601562 142.1875 C 28.617188 145.175781 28.617188 150.027344 31.601562 153.019531 C 34.59375 156.011719 39.453125 156.011719 42.445312 153.019531 L 64.109375 131.351562 C 67.097656 128.359375 67.097656 123.507812 64.109375 120.515625 L 42.445312 98.847656 C 39.453125 95.855469 34.59375 95.855469 31.601562 98.847656 C 28.617188 101.835938 28.617188 106.6875 31.601562 109.679688 L 42.445312 120.515625 C 45.429688 123.507812 45.429688 128.359375 42.445312 131.351562 " fill-opacity="1" fill-rule="nonzero"/><path fill="#0097b2" d="M 37.027344 155.261719 C 36.5 155.261719 35.972656 155.207031 35.453125 155.101562 C 36.863281 154.800781 38.207031 154.117188 39.304688 153.019531 L 60.972656 131.351562 C 63.957031 128.359375 63.957031 123.507812 60.972656 120.515625 L 39.304688 98.847656 C 38.207031 97.753906 36.863281 97.0625 35.453125 96.773438 C 35.972656 96.664062 36.5 96.609375 37.027344 96.609375 C 38.988281 96.609375 40.949219 97.355469 42.445312 98.847656 L 64.109375 120.515625 C 65.601562 122.011719 66.355469 123.972656 66.355469 125.933594 C 66.355469 127.894531 65.601562 129.855469 64.109375 131.351562 L 42.445312 153.019531 C 40.949219 154.515625 38.988281 155.261719 37.027344 155.261719 " fill-opacity="1" fill-rule="nonzero"/><path fill="#0097b2" d="M 119.039062 149.953125 L 90.640625 121.550781 C 82.773438 113.679688 82.773438 100.917969 90.640625 93.046875 L 100.402344 83.285156 L 128.800781 111.683594 C 132.742188 115.617188 134.707031 120.777344 134.707031 125.933594 C 134.707031 131.09375 132.742188 136.25 128.800781 140.1875 L 119.039062 149.953125 " fill-opacity="1" fill-rule="nonzero"/><path fill="#ffbd59" d="M 153.855469 86.835938 L 182.363281 58.332031 C 190.234375 50.464844 190.234375 37.699219 182.363281 29.832031 C 174.488281 21.957031 161.730469 21.957031 153.855469 29.832031 L 96.851562 86.835938 C 88.984375 94.703125 88.984375 107.46875 96.851562 115.335938 L 153.855469 172.34375 C 161.730469 180.214844 174.488281 180.214844 182.363281 172.34375 C 190.234375 164.476562 190.234375 151.710938 182.363281 143.84375 L 153.855469 115.335938 C 145.988281 107.46875 145.988281 94.703125 153.855469 86.835938 " fill-opacity="1" fill-rule="nonzero"/><g clip-path="url(#df89210a19)"><path fill="#ffbd59" d="M 183.214844 95.667969 L 194.050781 84.835938 C 197.042969 81.84375 197.042969 76.992188 194.050781 74 C 191.058594 71.007812 186.207031 71.007812 183.214844 74 L 161.542969 95.667969 C 158.554688 98.660156 158.554688 103.511719 161.542969 106.503906 L 183.214844 128.175781 C 186.207031 131.164062 191.058594 131.164062 194.050781 128.175781 C 197.042969 125.183594 197.042969 120.332031 194.050781 117.339844 L 183.214844 106.503906 C 180.222656 103.511719 180.222656 98.660156 183.214844 95.667969 " fill-opacity="1" fill-rule="nonzero"/></g><g clip-path="url(#3fea117c01)"><path fill="#d3d2d2" d="M 193.15625 128.941406 C 193.464844 128.710938 193.769531 128.453125 194.050781 128.175781 C 195.546875 126.679688 196.289062 124.71875 196.289062 122.757812 C 196.289062 124.71875 195.546875 126.679688 194.050781 128.175781 C 193.769531 128.453125 193.464844 128.710938 193.15625 128.941406 M 194.050781 74 C 193.789062 73.738281 193.507812 73.492188 193.214844 73.273438 C 193.507812 73.492188 193.789062 73.738281 194.050781 74 " fill-opacity="1" fill-rule="nonzero"/></g><g clip-path="url(#3f3bf62bce)"><path fill="#e8a643" d="M 188.636719 130.414062 C 188.109375 130.414062 187.582031 130.359375 187.066406 130.25 C 188.472656 129.957031 189.8125 129.265625 190.910156 128.175781 C 193.902344 125.183594 193.902344 120.332031 190.910156 117.339844 L 180.074219 106.503906 C 177.082031 103.511719 177.082031 98.660156 180.074219 95.667969 L 190.910156 84.835938 C 193.902344 81.84375 193.902344 76.992188 190.910156 74 C 189.8125 72.902344 188.472656 72.21875 187.066406 71.917969 C 187.582031 71.8125 188.109375 71.757812 188.636719 71.757812 C 190.246094 71.757812 191.863281 72.265625 193.214844 73.273438 C 193.507812 73.492188 193.789062 73.738281 194.050781 74 C 195.546875 75.496094 196.289062 77.457031 196.289062 79.417969 C 196.289062 81.378906 195.546875 83.339844 194.050781 84.835938 L 183.214844 95.667969 C 181.71875 97.164062 180.96875 99.125 180.96875 101.085938 C 180.96875 103.046875 181.71875 105.007812 183.214844 106.503906 L 194.050781 117.339844 C 195.546875 118.835938 196.289062 120.796875 196.289062 122.757812 C 196.289062 124.71875 195.546875 126.679688 194.050781 128.175781 C 193.769531 128.453125 193.464844 128.710938 193.15625 128.941406 C 191.816406 129.925781 190.222656 130.414062 188.636719 130.414062 " fill-opacity="1" fill-rule="nonzero"/></g></svg>