<?xml version="1.0" encoding="UTF-8"?>
<svg xmlns="http://www.w3.org/2000/svg" id="icons" viewBox="0 0 60 60" width="512" height="512"><path d="M8,20a1,1,0,0,1-1-1V11a1,1,0,0,1,2,0v8A1,1,0,0,1,8,20Z" fill="#367f47"/><path d="M24,15h6a1,1,0,0,1,1,1v5a0,0,0,0,1,0,0H23a0,0,0,0,1,0,0V16A1,1,0,0,1,24,15Z" fill="#6b664e"/><path d="M21,20H31a1,1,0,0,1,1,1v7a0,0,0,0,1,0,0H20a0,0,0,0,1,0,0V21A1,1,0,0,1,21,20Z" fill="#847949"/><path d="M18,27H33a1,1,0,0,1,1,1v9a0,0,0,0,1,0,0H17a0,0,0,0,1,0,0V28A1,1,0,0,1,18,27Z" fill="#e3c84c"/><path d="M42,18h8a1,1,0,0,1,1,1v6a0,0,0,0,1,0,0H41a0,0,0,0,1,0,0V19A1,1,0,0,1,42,18Z" fill="#847949"/><path d="M15.97,19.24l-.5,2a1,1,0,0,1-.97.76H13V37H3V22H2a1,1,0,0,1-1-1V19a1,1,0,0,1,1-1H15A1,1,0,0,1,15.97,19.24Z" fill="#49a561"/><path d="M40,24H55a1,1,0,0,1,1,1v8a0,0,0,0,1,0,0H39a0,0,0,0,1,0,0V25A1,1,0,0,1,40,24Z" fill="#e3c84c"/><path d="M9,26h4a0,0,0,0,1,0,0v4a0,0,0,0,1,0,0H9a1,1,0,0,1-1-1V27A1,1,0,0,1,9,26Z" fill="#6de08e"/><path d="M54.85,44l-1.89,4.01c-2.67.1-2.75,1.99-5.57,1.99-2.9,0-2.9-2-5.81-2-2.89,0-2.89,2-5.79,2s-2.9-2-5.8-2-2.9,2-5.8,2-2.9-2-5.8-2-2.9,2-5.8,2-2.9-2-5.8-2a4.455,4.455,0,0,0-1.65.28L3,44V43H55Z" fill="#e1efff"/><path d="M58.83,35.54,54.85,44H3L1.11,40.21A1,1,0,0,1,1,39.76V37a1,1,0,0,1,1-1H37a1,1,0,0,0,1-1V34a1,1,0,0,1,1-1H57.21A1.786,1.786,0,0,1,58.83,35.54Z" fill="#5fc77d"/><path d="M59,51a5.489,5.489,0,0,1-3.471-1.177,3.727,3.727,0,0,0-4.672,0,5.7,5.7,0,0,1-6.938,0,3.715,3.715,0,0,0-4.664,0,5.7,5.7,0,0,1-6.936,0,3.717,3.717,0,0,0-4.665,0,5.693,5.693,0,0,1-6.933,0,3.715,3.715,0,0,0-4.664,0A5.479,5.479,0,0,1,12.59,51a5.479,5.479,0,0,1-3.467-1.177A3.529,3.529,0,0,0,6.794,49a3.529,3.529,0,0,0-2.329.823A5.475,5.475,0,0,1,1,51a1,1,0,0,1,0-2,3.526,3.526,0,0,0,2.328-.823A5.476,5.476,0,0,1,6.794,47a5.478,5.478,0,0,1,3.466,1.177A3.53,3.53,0,0,0,12.59,49a3.536,3.536,0,0,0,2.332-.823,5.693,5.693,0,0,1,6.933,0,3.717,3.717,0,0,0,4.665,0,5.695,5.695,0,0,1,6.934,0,3.717,3.717,0,0,0,4.665,0,5.7,5.7,0,0,1,6.935,0,3.722,3.722,0,0,0,4.669,0,5.705,5.705,0,0,1,6.941,0A3.545,3.545,0,0,0,59,49a1,1,0,0,1,0,2Z" fill="#b0ccdd"/></svg>
