<svg height="512" viewBox="0 0 512 512" width="512" xmlns="http://www.w3.org/2000/svg"><g id="Layer_11" data-name="Layer 11"><path d="m371.905 241.19 112.595-225.19h-42.421a136 136 0 0 0 -110.29 56.426l-39.824 55.2a401.108 401.108 0 0 1 -95.465 96.374l-1.426.935a1558.073 1558.073 0 0 1 176.831 16.255z" fill="#4fb5dc"/><path d="m371.905 241.19q-22.44-3.361-44.966-6.067l109.5-219.006q2.812-.117 5.64-.117h42.421z" fill="#474747"/><path d="m381.2 222.126.225.03c15.95-31.904 103.075-206.156 103.075-206.156h-24l-91.491 182.981a16.088 16.088 0 0 0 12.191 23.145z" fill="#686868"/><path d="m432.5 120h-48l51.942-103.883q2.809-.117 5.637-.117h42.421z" fill="#686868"/><path d="m12.5 224h128.6a1558.07 1558.07 0 0 1 330.979 35.561 25.929 25.929 0 0 1 20.421 25.339 25.928 25.928 0 0 1 -18.244 24.764l-74.754 23.2a960.024 960.024 0 0 1 -284.544 43.136h-102.458z" fill="#4fb5dc"/><path d="m399.5 300.861 74.755-23.2a25.835 25.835 0 0 0 12.672-8.786 25.855 25.855 0 0 0 -14.849-9.315 1558 1558 0 0 0 -330.978-35.56h-128.6v120h102.458a959.981 959.981 0 0 0 284.542-43.139z" fill="#5ed3f2"/><path d="m236.5 296 240 88-104-88z" fill="#474747"/><path d="m296.136 296 134.76 49.412-58.396-49.412z" fill="#686868"/><rect fill="#f2f2f2" height="48" rx="16" width="32" x="44.5" y="256"/><path d="m60.5 256v16a16 16 0 0 0 16 16v-16a16 16 0 0 0 -16-16z" fill="#fff"/><rect fill="#f2f2f2" height="48" rx="16" width="32" x="108.5" y="256"/><rect fill="#f2f2f2" height="48" rx="16" width="32" x="172.5" y="256"/><path d="m460.5 16-52 104h24l27.544-55.089 10.593-21.185 5.717-11.435c1.155-2.31 3.783-7.564 4.371-8.741 1.207-2.414 2.15-4.3 2.793-5.585l.982-1.965z" fill="#939393"/><path d="m124.5 256v16a16 16 0 0 0 16 16v-16a16 16 0 0 0 -16-16z" fill="#fff"/><path d="m188.5 256v16a16 16 0 0 0 16 16v-16a16 16 0 0 0 -16-16z" fill="#fff"/><path d="m28.5 456h288v40h-288z" fill="#474747"/><path d="m68.5 480h248v-24h-284.623a39.975 39.975 0 0 0 36.623 24z" fill="#686868"/><path d="m172.5 344h128v112h-128z" fill="#976947"/><path d="m172.5 344h128a0 0 0 0 1 0 0v112a0 0 0 0 1 0 0h-16a112 112 0 0 1 -112-112 0 0 0 0 1 0 0z" fill="#a8795a"/><path d="m44.5 344h128v112h-128z" fill="#c18e59"/><path d="m44.5 344h128a0 0 0 0 1 0 0v112a0 0 0 0 1 0 0h-16a112 112 0 0 1 -112-112 0 0 0 0 1 0 0z" fill="#d6a374"/><g fill="#f6b940"><path d="m132.5 344v64l-24-24-24 24v-64"/><path d="m260.5 344v64l-24-24-24 24v-64"/></g></g></svg>