<svg id="Layer_1" viewBox="0 0 512 512" xmlns="http://www.w3.org/2000/svg" data-name="Layer 1"><path d="m355.014 485.9v-8.617h8.617a26.123 26.123 0 0 0 26.107-26.079v-62.9a7 7 0 1 0 -14 0v62.9a12.1 12.1 0 0 1 -12.1 12.075h-297.838a12.09 12.09 0 0 1 -12.076-12.075v-425.104a12.1 12.1 0 0 1 12.076-12.107h241.45v49.152a19.369 19.369 0 0 0 19.361 19.332h49.124v81.1a7 7 0 1 0 14 0v-88.1a7 7 0 0 0 -2.051-4.951l-68.484-68.486a7 7 0 0 0 -4.951-2.051h-248.449a26.124 26.124 0 0 0 -26.084 26.111v8.616h-8.616a26.109 26.109 0 0 0 -26.079 26.076v425.108a26.122 26.122 0 0 0 26.079 26.111h297.836a26.123 26.123 0 0 0 26.078-26.111zm-33.761-422.755v-39.245l44.58 44.578h-39.222a5.349 5.349 0 0 1 -5.358-5.333zm-302.23 422.755v-425.108a12.089 12.089 0 0 1 12.077-12.076h8.617v402.492a26.11 26.11 0 0 0 26.083 26.079h275.211v8.613a12.1 12.1 0 0 1 -12.075 12.1h-297.836a12.1 12.1 0 0 1 -12.077-12.1zm156.888-379.962-49.549 49.55a7 7 0 0 1 -9.9 0l-15.7-15.7a7 7 0 1 1 9.9-9.9l10.753 10.754 44.6-44.6a7 7 0 1 1 9.9 9.9zm119.377 1.654a7 7 0 0 1 -7 7h-79.4a7 7 0 0 1 0-14h79.4a7 7 0 0 1 7 7zm-93.4 33.988a7 7 0 0 1 7-7h45.751a7 7 0 1 1 0 14h-45.751a7 7 0 0 1 -7.001-7zm76.393-7h68.089a7 7 0 0 1 0 14h-68.09a7 7 0 0 1 0-14zm-76.393 40.961a7 7 0 0 1 7-7h137.481a7 7 0 0 1 0 14h-137.481a7 7 0 0 1 -7.001-7.002zm-25.974 51.749-49.55 49.578a7 7 0 0 1 -9.9 0l-15.7-15.7a7 7 0 1 1 9.9-9.9l10.752 10.752 44.6-44.624a7 7 0 1 1 9.905 9.9zm25.974 69.629a7 7 0 0 1 7-7h83.792a7 7 0 1 1 0 14h-83.792a7 7 0 0 1 -7.001-7.002zm0-33.987a7 7 0 0 1 7-7h45.751a7 7 0 0 1 0 14h-45.751a7 7 0 0 1 -7.001-7.002zm89.6-7a7 7 0 0 1 0 14h-13.208a7 7 0 0 1 0-14zm-89.6-26.957a7 7 0 0 1 7-7h79.4a7 7 0 0 1 0 14h-79.4a7 7 0 0 1 -7.001-7.004zm-25.976 119.7-49.549 49.549a7 7 0 0 1 -9.9 0l-15.7-15.7a7 7 0 1 1 9.9-9.9l10.753 10.753 44.6-44.6a7 7 0 1 1 9.9 9.9zm25.976 1.682a7 7 0 0 1 7-7h79.4a7 7 0 0 1 0 14h-79.4a7 7 0 0 1 -7.001-7.006zm151.482 33.953a7 7 0 0 1 -7 7h-68.09a7 7 0 0 1 0-14h68.089a7 7 0 0 1 7.001 7zm-151.483 0a7 7 0 0 1 7-7h45.751a7 7 0 0 1 0 14h-45.75a7 7 0 0 1 -7.001-7zm0 33.959a7 7 0 0 1 7-7h137.482a7 7 0 0 1 0 14h-137.481a7 7 0 0 1 -7.001-7zm305.092-142.327a101.608 101.608 0 1 0 -101.622 101.622 101.737 101.737 0 0 0 101.622-101.622zm-189.212 0a87.605 87.605 0 1 1 87.59 87.618 87.7 87.7 0 0 1 -87.59-87.618zm87.59 77.017a77 77 0 0 1 -76.21-66.021 7 7 0 1 1 13.863-1.98 62.985 62.985 0 1 0 0-18.032 7 7 0 0 1 -13.863-1.982 77.009 77.009 0 1 1 76.21 88.015zm7-125.944v44.885l21.586 12.463a7 7 0 1 1 -7 12.127l-25.087-14.485a7 7 0 0 1 -3.5-6.063v-48.927a7 7 0 1 1 14 0zm-322.269-113.669v55.191h55.162v-18.227a7 7 0 1 1 14 0v25.229a7 7 0 0 1 -7 7h-69.164a7 7 0 0 1 -7-7v-69.195a7 7 0 0 1 7-7h51.308a7 7 0 0 1 0 14zm-14 114.378a7 7 0 0 1 7-7h51.308a7 7 0 0 1 0 14h-44.308v55.19h55.162v-18.224a7 7 0 1 1 14 0v25.227a7 7 0 0 1 -7 7h-69.164a7 7 0 0 1 -7-7zm0 121.352a7 7 0 0 1 7-7h51.308a7 7 0 0 1 0 14h-44.308v55.189h55.162v-18.2a7 7 0 1 1 14 0v25.2a7 7 0 0 1 -7 7h-69.164a7 7 0 0 1 -7-7z" fill="#fb4455"/></svg>