<svg xmlns="http://www.w3.org/2000/svg" version="1.1" xmlns:xlink="http://www.w3.org/1999/xlink" width="512" height="512" x="0" y="0" viewBox="0 0 512 512" style="enable-background:new 0 0 512 512" xml:space="preserve" class=""><g><linearGradient id="a" x1="256" x2="256" y1="416.712" y2="95.288" gradientUnits="userSpaceOnUse"><stop stop-opacity="1" stop-color="#8d3fff" offset="0"></stop><stop stop-opacity="1" stop-color="#00b4d1" offset="0"></stop><stop stop-opacity="1" stop-color="#06d100" offset="0.3301158301158301"></stop><stop stop-opacity="1" stop-color="#00b4d1" offset="0.3841698841698842"></stop><stop stop-opacity="1" stop-color="#00b4d1" offset="0.3996138996138996"></stop><stop stop-opacity="1" stop-color="#06d100" offset="0.48455598455598453"></stop><stop stop-opacity="1" stop-color="#06d100" offset="0.7432432432432432"></stop><stop stop-opacity="1" stop-color="#06d100" offset="0.88996138996139"></stop><stop stop-opacity="1" stop-color="#06d100" offset="1"></stop><stop stop-opacity="1" stop-color="#00b4d1" offset="1"></stop><stop stop-opacity="1" stop-color="#00b4d1" offset="1"></stop></linearGradient><path fill="url(#a)" d="M501 322.333h-12.745v-68.428c0-7.648-2.622-14.383-7.792-20.017l-39.349-42.88c-5.757-6.273-13.3-9.589-21.814-9.589h-2.586l-13.775-13.774c-3.018-3.017-6.868-4.612-11.134-4.612h-65.279v-51.387c0-9.019-7.338-16.357-16.357-16.357H33.154a5 5 0 0 0 0 10h277.015a6.365 6.365 0 0 1 6.357 6.357v195.209h-7.035V135.313a5 5 0 0 0-5-5h-76.233a5 5 0 0 0-5 5v19.076h-71.233a5 5 0 0 0-5 5v71.233H75.792a5 5 0 0 0-5 5v71.233H39.547v-78.554a5 5 0 0 0-10 0v144.458a5 5 0 0 0 5 5h40.169c2.491 21.889 21.116 38.953 43.66 38.953s41.169-17.064 43.66-38.953h190.459c2.491 21.888 21.116 38.953 43.66 38.953s41.169-17.064 43.66-38.953h45.097c11.628 0 21.089-9.46 21.089-21.089v-29.336a5 5 0 0 0-5-5zm-22.745-10.292h-12.364v-15.908h12.364zm-.05-59.325H373.853v-42.102h71.682l27.56 30.034c3.199 3.486 4.865 7.45 5.11 12.067zm-44.459-54.948 2.612 2.847h-67.505a5 5 0 0 0-5 5v52.102a5 5 0 0 0 5 5h109.402v23.417h-17.364a5 5 0 0 0-5 5v25.908a5 5 0 0 0 5 5h17.364v23.926h-47.292c-8.044-10.427-20.651-17.162-34.808-17.162s-26.764 6.735-34.808 17.162h-34.82V191.419h92.774c5.719 0 10.58 2.136 14.446 6.35zm-274.759 158.2h196.555a43.591 43.591 0 0 0-3.048 11.791H162.035a43.6 43.6 0 0 0-3.048-11.791zm232.818-182.936c1.624 0 2.915.535 4.063 1.683l6.703 6.703h-76.045v-8.386zM233.258 306.854v-66.233h16.972v19.799a5 5 0 0 0 7.243 4.469l8.902-4.467 8.901 4.467a5.001 5.001 0 0 0 7.243-4.469v-19.799h16.972v66.233zm-49.261-66.233h12.289v11.695l-3.902-1.958a5 5 0 0 0-4.485 0l-3.902 1.958zm-7.625 24.054a5.003 5.003 0 0 0 4.868.214l8.902-4.467 8.902 4.467a4.999 4.999 0 0 0 7.243-4.469v-19.799h16.972v66.233h-66.233v-66.233h16.972v19.799a5 5 0 0 0 2.375 4.255zm83.858-24.054h12.289v11.695l-3.901-1.958a5 5 0 0 0-4.485 0l-3.902 1.958V240.62zm0-100.309h12.289v11.695l-3.901-1.958a5 5 0 0 0-4.485 0l-3.903 1.958zm-10 0v19.798a4.998 4.998 0 0 0 7.243 4.469l8.903-4.467 8.901 4.467a5 5 0 0 0 7.243-4.469v-19.798h16.972v90.309h-66.233v-90.309h16.972zm-66.233 24.076h12.289v11.695l-3.902-1.958a5 5 0 0 0-4.485 0l-3.902 1.958zm-26.972 0h16.972v19.799a5 5 0 0 0 7.243 4.469l8.902-4.467 8.902 4.467a4.999 4.999 0 0 0 7.243-4.469v-19.799h16.972v66.233h-66.233v-66.233zm-49.261 76.233h12.289v11.695l-3.901-1.958a5 5 0 0 0-4.485 0l-3.902 1.958v-11.695zm-26.972 0h16.972v19.799a5 5 0 0 0 7.243 4.469l8.902-4.467 8.901 4.467a5.001 5.001 0 0 0 7.243-4.469v-19.799h16.973v66.233H80.792zm235.734 76.233v29.113H153.184c-8.044-10.427-20.651-17.162-34.808-17.162s-26.764 6.735-34.808 17.162H62.717v-13.178a5 5 0 0 0-5-5h-18.17v-10.935zM52.717 345.967h-13.17v-8.178h13.17zm-13.17 10h38.217a43.591 43.591 0 0 0-3.048 11.791H39.547zm78.829 50.744c-18.722 0-33.953-15.231-33.953-33.953s15.231-33.953 33.953-33.953 33.953 15.231 33.953 33.953-15.231 33.953-33.953 33.953zm277.779 0c-18.722 0-33.953-15.231-33.953-33.953s15.231-33.953 33.953-33.953 33.953 15.231 33.953 33.953-15.231 33.953-33.953 33.953zm99.846-50.042c0 6.114-4.975 11.089-11.089 11.089h-45.097a43.6 43.6 0 0 0-3.048-11.791h46.489a5 5 0 0 0 5-5v-18.635h7.745v24.336zM358.978 297.33a5 5 0 0 1 5-5h21.497a5 5 0 0 1 0 10h-21.497a5 5 0 0 1-5-5zm37.177 51.289c-13.311 0-24.14 10.829-24.14 24.14s10.829 24.14 24.14 24.14 24.14-10.829 24.14-24.14-10.829-24.14-24.14-24.14zm0 38.28c-7.797 0-14.14-6.343-14.14-14.14s6.343-14.14 14.14-14.14 14.14 6.343 14.14 14.14-6.343 14.14-14.14 14.14zm-277.779-38.28c-13.311 0-24.14 10.829-24.14 24.14s10.829 24.14 24.14 24.14 24.14-10.829 24.14-24.14-10.829-24.14-24.14-24.14zm0 38.28c-7.797 0-14.14-6.343-14.14-14.14s6.343-14.14 14.14-14.14 14.14 6.343 14.14 14.14-6.343 14.14-14.14 14.14zM11 133.123a5 5 0 0 1 0-10h42.838a5 5 0 0 1 0 10zm19.278 12.847h33.199a5 5 0 0 1 0 10H30.278a5 5 0 0 1 0-10zm48.191 67.831H21.352a5 5 0 0 1 0-10h57.117a5 5 0 0 1 0 10zm-21.774-26.774H15.627a5 5 0 0 1 0-10h41.068a5 5 0 0 1 0 10z" opacity="1" data-original="url(#a)"></path></g></svg>