<svg id="Layer_1" enable-background="new 0 0 512 512" height="512" viewBox="0 0 512 512" width="512" xmlns="http://www.w3.org/2000/svg" xmlns:xlink="http://www.w3.org/1999/xlink"><linearGradient id="SVGID_1_" gradientUnits="userSpaceOnUse" x1="180.184" x2="461.015" y1="549.293" y2="62.881"><stop offset=".33" stop-color="#52c5dc"/><stop offset=".63" stop-color="#3c99d4"/><stop offset=".895" stop-color="#3e7abc"/></linearGradient><path d="m481 127.767c4.142 0 7.5-3.357 7.5-7.5v-21.968c0-4.143-3.358-7.5-7.5-7.5h-54.923v-43.758c0-2.275-1.033-4.428-2.809-5.852s-4.103-1.967-6.322-1.469l-230.008 51.23c-.013.003-.025.006-.037.008l-.094.021c-.014.003-.026.01-.04.014-3.337.76-5.829 3.739-5.829 7.307v21.968c0 4.143 3.358 7.5 7.5 7.5h19.35v36.259h-19.35c-4.142 0-7.5 3.357-7.5 7.5v53.699c0 4.143 3.358 7.5 7.5 7.5h53.699c4.142 0 7.5-3.357 7.5-7.5v-53.699c0-4.143-3.358-7.5-7.5-7.5h-19.35v-36.259h133.063l-9.213 88.895c-.007.051-.01.101-.016.152l-15.509 149.64h-14.863c-4.142 0-7.5 3.357-7.5 7.5v91.006c0 4.143 3.358 7.5 7.5 7.5h164.751c4.142 0 7.5-3.357 7.5-7.5v-91.006c0-4.143-3.358-7.5-7.5-7.5h-14.862l-24.738-238.688zm-246.364 89.958h-38.699v-38.699h38.699zm176.441-126.926h-154.469l154.469-34.404zm-215.14 15h277.563v6.968h-277.563zm164.473 123.466 70.799 35.259-78.505 39.096zm81.279 46.798 8.82 85.098-89.847-44.746zm-70.816-58.346 61.602-30.561 6.692 64.573zm-7.938-12.806 5.784-55.809 53.252 26.521zm-12.753 123.042 77.309 38.501h-81.299zm123.318 129.508h-149.751v-76.006h149.751zm-43.545-294.619-59.585-29.675.56-5.4h55.39zm-169.512 284.158c-11.479 0-17.712 3.41-22.722 6.15-4.402 2.408-7.879 4.311-15.522 4.311-5.972 0-9.401-1.164-12.714-2.82l32.229-75.658c1.413-3.316.267-7.168-2.729-9.172l-34.679-23.21v-62.614c0-4.143-3.358-7.5-7.5-7.5h-43.584v-32.6c0-4.143-3.358-7.5-7.5-7.5s-7.5 3.357-7.5 7.5v32.6h-43.585c-4.142 0-7.5 3.357-7.5 7.5v62.613l-34.679 23.21c-2.995 2.004-4.141 5.855-2.729 9.172l32.227 75.655c-3.315 1.658-6.743 2.824-12.719 2.824-7.642 0-11.118-1.902-15.519-4.31-5.008-2.741-11.241-6.151-22.718-6.151-4.142 0-7.5 3.357-7.5 7.5s3.358 7.5 7.5 7.5c7.642 0 11.118 1.902 15.519 4.31 5.009 2.741 11.242 6.151 22.719 6.151s17.71-3.41 22.719-6.151c4.401-2.407 7.877-4.31 15.519-4.31s11.119 1.902 15.52 4.31c5.009 2.741 11.243 6.151 22.72 6.151h.004.002.003c11.471-.002 17.703-3.411 22.71-6.151 4.401-2.407 7.877-4.31 15.519-4.31 7.644 0 11.121 1.902 15.522 4.311 5.009 2.74 11.243 6.15 22.722 6.15s17.712-3.41 22.722-6.15c4.402-2.408 7.879-4.311 15.522-4.311 4.142 0 7.5-3.357 7.5-7.5s-3.357-7.5-7.499-7.5zm-158.306-155.514h87.168v45.075l-39.413-26.378c-2.524-1.689-5.818-1.689-8.343 0l-39.413 26.378v-45.075zm59.099 161.664c-2.636 1.442-4.947 2.7-8.014 3.479v-100.462c0-4.143-3.358-7.5-7.5-7.5s-7.5 3.357-7.5 7.5v100.466c-3.073-.779-5.386-2.038-8.026-3.482-5.008-2.74-11.242-6.15-22.719-6.15-4.755 0-8.601.59-11.842 1.471l-29.67-69.65 79.757-53.381 79.757 53.381-29.671 69.653c-3.243-.882-7.092-1.474-11.853-1.474-11.477-.001-17.711 3.409-22.719 6.149z" fill="url(#SVGID_1_)"/></svg>