<svg id="Flat" height="512" viewBox="0 0 512 512" width="512" xmlns="http://www.w3.org/2000/svg"><path d="m448 488h-384v-464h352a32 32 0 0 1 32 32z" fill="#fbe9d8"/><path d="m168 208a80 80 0 1 1 80-80 80.091 80.091 0 0 1 -80 80zm0-144a64 64 0 1 0 64 64 64.072 64.072 0 0 0 -64-64z" fill="#e3d3c2"/><g fill="#bfb1a3"><path d="m328 424a8 8 0 0 0 8 8h64a8 8 0 0 0 0-16h-64a8 8 0 0 0 -8 8z"/><path d="m400 448h-128a8 8 0 0 0 0 16h128a8 8 0 0 0 0-16z"/><path d="m192 144a24.028 24.028 0 0 0 -24-24 8 8 0 1 1 8-8 8 8 0 0 0 16 0 24.039 24.039 0 0 0 -16-22.624v-1.376a8 8 0 0 0 -16 0v1.376a24 24 0 0 0 8 46.624 8 8 0 1 1 -8 8 8 8 0 0 0 -16 0 24.039 24.039 0 0 0 16 22.624v1.376a8 8 0 0 0 16 0v-1.376a24.039 24.039 0 0 0 16-22.624z"/><path d="m144 240h-32a8 8 0 0 0 0 16h32a8 8 0 0 0 0-16z"/><path d="m320 240h-128a8 8 0 0 0 0 16h128a8 8 0 0 0 0-16z"/><path d="m384 256h16a8 8 0 0 0 0-16h-16a8 8 0 0 0 0 16z"/><path d="m144 272h-32a8 8 0 0 0 0 16h32a8 8 0 0 0 0-16z"/><path d="m320 272h-128a8 8 0 0 0 0 16h128a8 8 0 0 0 0-16z"/><path d="m384 288h16a8 8 0 0 0 0-16h-16a8 8 0 0 0 0 16z"/><path d="m144 304h-32a8 8 0 0 0 0 16h32a8 8 0 0 0 0-16z"/><path d="m320 304h-128a8 8 0 0 0 0 16h128a8 8 0 0 0 0-16z"/><path d="m384 320h16a8 8 0 0 0 0-16h-16a8 8 0 0 0 0 16z"/><path d="m144 336h-32a8 8 0 0 0 0 16h32a8 8 0 0 0 0-16z"/><path d="m320 336h-128a8 8 0 0 0 0 16h128a8 8 0 0 0 0-16z"/><path d="m384 352h16a8 8 0 0 0 0-16h-16a8 8 0 0 0 0 16z"/><path d="m144 368h-32a8 8 0 0 0 0 16h32a8 8 0 0 0 0-16z"/><path d="m328 376a8 8 0 0 0 -8-8h-128a8 8 0 0 0 0 16h128a8 8 0 0 0 8-8z"/><path d="m384 384h16a8 8 0 0 0 0-16h-16a8 8 0 0 0 0 16z"/><path d="m320 144h80a8 8 0 0 0 0-16h-80a8 8 0 0 0 0 16z"/><path d="m280 176h120a8 8 0 0 0 0-16h-120a8 8 0 0 0 0 16z"/><path d="m280 208h120a8 8 0 0 0 0-16h-120a8 8 0 0 0 0 16z"/></g><path d="m448 56v32h-48v-40a24.006 24.006 0 0 0 -24-24h40a32 32 0 0 1 32 32z" fill="#e3d3c2"/></svg>