<svg clip-rule="evenodd" fill-rule="evenodd" height="512" stroke-linejoin="round" stroke-miterlimit="2" viewBox="0 0 64 64" width="512" xmlns="http://www.w3.org/2000/svg" xmlns:xlink="http://www.w3.org/1999/xlink"><linearGradient id="_Linear1" gradientTransform="matrix(53.274 0 0 31.667 5.363 32)" gradientUnits="userSpaceOnUse" x1="0" x2="1" y1="0" y2="0"><stop offset="0" stop-color="#59ff95"/><stop offset="1" stop-color="#00b2de"/></linearGradient><path d="m42.95 17.833-2.376 18.137h-27.632l.375-2.862c.06-.456-.262-.875-.718-.934-.456-.06-.875.262-.934.718l-1.31 10c-.031.238.041.477.2.658.158.18.386.283.626.283h5.453c.143 2.28 1.928 4 4.336 4 2.363 0 4.553-1.734 5.2-4h17.464c.143 2.28 1.928 4 4.336 4 2.363 0 4.553-1.734 5.2-4h3.324c.418 0 .772-.31.826-.725l1.31-10c.016-.12.005-.242-.032-.358l-3.148-10c-.109-.347-.431-.583-.795-.583h-10.592l.663-5.059c.031-.238-.042-.477-.2-.658-.159-.18-.387-.283-.627-.283h-29.312c-.419 0-.772.31-.827.725l-.262 2c-.059.456.262.875.718.934.456.06.875-.262.935-.718l.167-1.275zm-20.932 22c1.685 0 2.87 1.373 2.649 3.059-.236 1.806-1.891 3.275-3.697 3.275-1.686 0-2.871-1.373-2.65-3.059.236-1.806 1.892-3.275 3.698-3.275zm27 0c1.685 0 2.87 1.373 2.649 3.059-.236 1.806-1.891 3.275-3.697 3.275-1.686 0-2.871-1.373-2.65-3.059.236-1.806 1.892-3.275 3.698-3.275zm-.262 1.167c1.103 0 1.882.896 1.738 2-.145 1.104-1.158 2-2.262 2s-1.883-.896-1.738-2c.144-1.104 1.158-2 2.262-2zm-27 0c1.103 0 1.882.896 1.738 2-.145 1.104-1.158 2-2.262 2s-1.883-.896-1.738-2c.144-1.104 1.158-2 2.262-2zm-9.032-3.364-.593 4.531h4.687l.004-.016c.652-2.257 2.838-3.984 5.196-3.984 2.401 0 4.184 1.712 4.334 3.983l.001.017h13.409s.594-4.531.594-4.531zm31.121-13.803s-2.402 18.334-2.402 18.334h2.375l.004-.014c.651-2.259 2.837-3.986 5.196-3.986 2.407 0 4.193 1.72 4.335 4h2.409l.67-5.111h-3.051c-.46 0-.833-.373-.833-.833s.373-.833.833-.833h3.269l.204-1.557h-9.086c-.24 0-.468-.103-.627-.283-.158-.181-.231-.42-.2-.658l1.187-9.059zm5.964 0-1.092 8.334h7.95l-2.623-8.334zm-27.613 5.334h-1c-.459 0-.833.373-.833.833s.374.833.833.833h1c.46 0 .834-.373.834-.833s-.374-.833-.834-.833zm-4 0h-12c-.459 0-.833.373-.833.833s.374.833.833.833h12c.46 0 .834-.373.834-.833s-.374-.833-.834-.833zm-11.476-2.334h1c.46 0 .834-.373.834-.833s-.374-.833-.834-.833h-1c-.46 0-.833.373-.833.833s.373.833.833.833zm4 0h12c.46 0 .834-.373.834-.833s-.374-.833-.834-.833h-12c-.46 0-.833.373-.833.833s.373.833.833.833zm-3.476-4h12c.46 0 .834-.373.834-.833s-.374-.833-.834-.833h-12c-.46 0-.833.373-.833.833s.373.833.833.833z" fill="url(#_Linear1)"/></svg>