<svg id="Line_Gradient" viewBox="0 0 64 64" xmlns="http://www.w3.org/2000/svg" xmlns:xlink="http://www.w3.org/1999/xlink" data-name="Line Gradient"><linearGradient id="linear-gradient" gradientUnits="userSpaceOnUse" x1="4.84" x2="59.16" y1="32" y2="32"><stop offset="0" stop-color="#00c0ff"/><stop offset="1" stop-color="#5558ff"/></linearGradient><path d="m5.99871 47.59037c1.7951 0 2.61744.58593 3.65864 1.32795 1.15658.82459 2.46756 1.75891 5.00412 1.75891s3.84754-.93431 5.00412-1.75891c1.04177-.74202 1.86467-1.32795 3.66034-1.32795 1.79454 0 2.61687.58593 3.65808 1.32795 1.15658.82459 2.467 1.75891 5.00242 1.75891 2.53713 0 3.84811-.93431 5.00525-1.75778 1.04177-.74315 1.86523-1.32908 3.6626-1.32908 1.7985 0 2.62196.58593 3.66486 1.32908 1.15828.82346 2.47039 1.75778 5.00865 1.75778s3.85037-.93431 5.00865-1.75778c1.0429-.74315 1.86637-1.32908 3.66486-1.32908.64022 0 1.15828-.51806 1.15828-1.15828s-.51806-1.15828-1.15828-1.15828c-2.53826 0-3.85037.93431-5.00865 1.75778-1.0429.74315-1.86637 1.32908-3.66486 1.32908-1.39369 0-2.20175-.35369-2.98025-.85789 1.88192-2.74568 3.42351-5.70832 4.54912-8.8506 1.34039-3.77684 2.0858-7.72562 2.21362-11.73661.03507-1.0972-.62891-2.10277-1.65258-2.50206l-6.07078-2.3659v-7.92625c0-1.42749-1.16733-2.58803-2.60273-2.58803h-1.88899v-4.9453c0-1.42749-1.16733-2.58803-2.60273-2.58803h-11.93229c-1.4354 0-2.60273 1.16054-2.60273 2.58803v4.9453h-1.88955c-1.4354 0-2.60273 1.16054-2.60273 2.58803v7.91537l-6.0951 2.37566c-1.02933.39929-1.69387 1.41165-1.65315 2.5179.07239 1.95233.29975 3.93068.67585 5.87622.33086 1.73176.79123 3.48501 1.37093 5.2179 1.10328 3.23157 2.64635 6.2975 4.55103 9.15445-.94888.67027-1.77899 1.18182-3.45327 1.18182-1.79567 0-2.618-.58593-3.65921-1.32795-1.15658-.82459-2.46756-1.75891-5.00355-1.75891-.63965 0-1.15828.51806-1.15828 1.15828s.51862 1.15828 1.15828 1.15828zm42.71601-9.71641c-1.06121 2.96151-2.51578 5.75604-4.29405 8.34527-.92201-.52414-2.06665-.94541-3.76638-.94541-2.53826 0-3.84924.93431-5.00638 1.75891-.70137.49961-1.31049.92343-2.17743 1.15029v-21.38925l16.5145 6.50817c-.33086 1.54626-.73955 3.07618-1.27026 4.57203zm-4.92833-13.96366 6.82863 2.66141c.11311.04411.18437.15044.18098.27034-.04461 1.38903-.19463 2.76554-.39554 4.13336l-16.92998-6.67211v-4.41353l10.30135 4.01488c.00488.00205.00969.00361.01456.00566zm-10.30007-17.59374h4.80617c.15836 0 .28618.12216.28618.27147v4.9453h-5.09235zm-7.4123.27147c0-.14931.12838-.27147.28618-.27147h4.81013v5.21677h-5.09631zm-4.49228 7.53333c0-.14931.12838-.27147.28618-.27147h20.9163c.15836 0 .28618.12216.28618.27147v7.02347l-9.27979-3.61651c-.95467-.37101-2.0038-.37101-2.95847 0l-9.25038 3.60548v-7.01244zm-7.74937 12.72295c-.00452-.12216.06504-.22962.17815-.27373l17.14285-6.68152v4.41367l-16.90008 6.67346c-.21173-1.37758-.37059-2.7601-.42092-4.13188zm1.92575 10.43807c-.44135-1.32045-.78946-2.65547-1.07945-3.98455l16.4747-6.50478v21.51283c-1.24071-.15574-1.96131-.65804-2.82443-1.27316-1.15658-.82459-2.467-1.75891-5.00299-1.75891-1.39617 0-2.41404.28702-3.2462.67903-1.81165-2.70672-3.27738-5.61302-4.32162-8.67047zm34.55264 17.85037c.64022 0 1.15828.51806 1.15828 1.15828s-.51806 1.15828-1.15828 1.15828c-1.10738 0-1.61186.42191-2.31204 1.00557-.82346.68886-1.84939 1.54512-3.79607 1.54512s-2.97261-.85627-3.79607-1.54512c-.70017-.58366-1.20465-1.00557-2.31203-1.00557-1.10511 0-1.61073.42191-2.30864 1.00557-.82346.68886-1.8494 1.54512-3.79551 1.54512-1.94554 0-2.96978-.85627-3.79268-1.54512-.69791-.58366-1.20183-1.00557-2.30581-1.00557-1.10511 0-1.6096.42191-2.30807 1.00557-.82346.68886-1.84827 1.54512-3.79438 1.54512-1.94554 0-2.96978-.85627-3.79325-1.54512-.69791-.58366-1.20239-1.00557-2.30694-1.00557-.63965 0-1.15828-.51806-1.15828-1.15828s.51862-1.15828 1.15828-1.15828c1.94554 0 2.96978.85627 3.79325 1.54512.69791.58366 1.20239 1.00557 2.30694 1.00557 1.10511 0 1.6096-.42191 2.30807-1.00557.82346-.68886 1.84827-1.54512 3.79438-1.54512 1.94498 0 2.96922.85627 3.79211 1.54512.69791.58366 1.20239 1.00557 2.30637 1.00557 1.10625 0 1.6113-.42191 2.3092-1.00557.82346-.68886 1.8494-1.54512 3.79494-1.54512 1.94668 0 2.97261.85627 3.79607 1.54512.70017.58366 1.20465 1.00557 2.31203 1.00557s1.61186-.42191 2.31203-1.00557c.82346-.68886 1.8494-1.54512 3.79607-1.54512z" fill="url(#linear-gradient)"/></svg>