<svg id="Layer_1" enable-background="new 0 0 450 450" height="512" viewBox="0 0 450 450" width="512" xmlns="http://www.w3.org/2000/svg" xmlns:xlink="http://www.w3.org/1999/xlink"><linearGradient id="SVGID_1_" gradientTransform="matrix(1 0 0 -1 0 450)" gradientUnits="userSpaceOnUse" x1="76.306" x2="360.119" y1="327.031" y2="43.219"><stop offset="0" stop-color="#00dbde"/><stop offset="1" stop-color="#fc00ff"/></linearGradient><path d="m243 231.3h-120.2c-59.4 0-107.8 48.4-107.8 107.8 0 33.8 27.5 61.3 61.3 61.3h213.2c33.8 0 61.3-27.5 61.3-61.3 0-59.4-48.4-107.8-107.8-107.8zm46.5 149.1h-213.2c-22.8 0-41.3-18.5-41.3-41.3 0-48.4 39.4-87.8 87.8-87.8h120.2c48.4 0 87.8 39.4 87.8 87.8 0 22.8-18.6 41.3-41.3 41.3zm-106.6-170.2c44.3 0 80.3-36 80.3-80.3s-36-80.3-80.3-80.3-80.3 36-80.3 80.3 36 80.3 80.3 80.3zm0-140.6c33.2 0 60.3 27 60.3 60.3 0 33.2-27 60.3-60.3 60.3-33.2 0-60.3-27-60.3-60.3 0-33.2 27.1-60.3 60.3-60.3zm252.1 230.6v12.2c0 26-21.1 47.1-47.1 47.1h-10.5c-5.5 0-10-4.5-10-10s4.5-10 10-10h10.5c14.9 0 27.1-12.2 27.1-27.1v-12.2c0-33.5-27.2-60.7-60.7-60.7h-36.5c-5.5 0-10-4.5-10-10s4.5-10 10-10h36.5c44.5-.1 80.7 36.2 80.7 80.7zm-90.5-164.4c0-25.7-20.9-46.6-46.6-46.6-4.9 0-9.7.8-14.3 2.2-5.3 1.7-10.9-1.2-12.6-6.4-1.7-5.3 1.2-10.9 6.4-12.6 6.6-2.1 13.4-3.2 20.4-3.2 36.7 0 66.6 29.9 66.6 66.6s-29.9 66.6-66.6 66.6c-7 0-13.8-1.1-20.4-3.2-5.3-1.7-8.1-7.3-6.5-12.6 1.7-5.3 7.3-8.1 12.6-6.5 4.6 1.5 9.4 2.2 14.3 2.2 25.8 0 46.7-20.9 46.7-46.5z" fill="url(#SVGID_1_)"/></svg>