<svg id="Layer_1" enable-background="new 0 0 2500 2500" viewBox="0 0 2500 2500" xmlns="http://www.w3.org/2000/svg"><g><path d="m2339.96 1204.79c-33.32 166.59-51.7 335.69-62.53 505.17-8.49 133.55-43.02 240.03-101.73 321.23-28.93 40.13-63.83 74.19-104.34 102.19-6.35 4.48-12.78 8.68-19.41 12.78-.1 0-.1 0-.1.1-98.46 61.04-227.34 90.34-383.85 90.9-164.06.56-326.45 31.64-481 86.42-262.34 93.05-498.08 30.89-697.06-244.89-70.74-98.18-149.32-190.29-230.7-279.79-276.8-304.33-238.54-612.12 137.84-923.74 125.9-96.03 223.15-220.07 292.95-370.79 110.69-239.29 361.46-384.5 622.3-346.34 93.51 13.63 195.99 49 305.08 117.03 114.79 71.39 231.54 139.9 350.91 203.45 305.84 162.96 436.5 402.15 371.64 726.28z" fill="#8bd2d6"/><g><path d="m2329.85 613.94v728.5l-797.47 103.78v-858.23l470.36-350.72z" fill="#fff"/><path d="m1532.39 588.76v858.23l-523.46-121.42v-630.7l473.91-61.31z" fill="#e5e5e4"/><path d="m2421.24 638.31-35.37 68.32-381.99-438.54 4.77-132.06z" fill="#05aea7"/><path d="m2008.65 136.03-4.77 132.06-513.94 386.65-557.35 75.87-34.44-80.54 555.24-89.82z" fill="#00b1aa"/><path d="m1532.39 1434.01v87.01l-546.81-146.73c-15.46-4.42-26.12-18.56-26.12-34.64 0-23.37 21.9-40.55 44.59-34.99z" fill="#d3d3d3"/><path d="m2388.2 1370.59c0 18.17-13.29 33.6-31.25 36.29l-824.55 114.14v-87.01l814.64-99.85c21.87-2.68 41.16 14.39 41.16 36.43z" fill="#eaeae9"/><path d="m1968.55 1364.45-241.67 28.29v-583.54h241.67z" fill="#00b1ab"/><path d="m1717.05 798.73h261.32v575.05l-261.32 30.59z" fill="#009e96"/><path d="m1968.55 1355.12-241.67 28.29v-564.87h241.67z" fill="#00b1ab"/><path d="m2237.95 832.34v348.76l-180.4 8.87v-366.49z" fill="#f8c214"/><path d="m2057.59 823.5v366.5l180.4-8.86v-348.77z" fill="#f8c113"/><path d="m2051.65 569.89c0 44.27-30.87 80.16-68.96 80.16s-68.96-35.89-68.96-80.16 30.88-80.16 68.96-80.16c38.09 0 68.96 35.89 68.96 80.16z" fill="#f8c214"/><path d="m2041.07 527.47c-8.3-4.11-17.45-6.35-26.97-6.35-38.08 0-68.97 35.93-68.97 80.17 0 15.58 3.82 30.24 10.64 42.56-24.64-12.22-42-40.69-42-73.92 0-44.33 30.8-80.17 68.88-80.17 24.73.01 46.38 15.04 58.42 37.71z" fill="#e1a625"/><g><path d="m1435.52 881.9v180.58l-158.27-10.54v-159.5z" fill="#f8c113"/><path d="m1267.91 883.67v177.04l176.95 11.66v-200.46zm167.61 83.85h-.01-74.47v-80.35c0-.11-.05-.19-.06-.3l74.55-4.97v85.62zm-83.81-80.04v80.03h-74.46v-75.07zm-74.46 89.37h74.46v80.05l-74.46-4.96zm83.73 80.66c.01-.11.06-.2.06-.31v-80.35h74.47.01v85.64z" fill="#00b1ab"/></g><g><path d="m1207.46 895.99v152.39l-133.57-8.9v-134.6z" fill="#f8c113"/><path d="m1066.02 897.48v149.4l149.32 9.85v-169.17zm141.44 70.76h-.01-62.85v-67.8c0-.09-.04-.16-.05-.26l62.91-4.19zm-70.73-67.54v67.54h-62.84v-63.35zm-62.84 75.41h62.84v67.55l-62.84-4.19zm70.66 68.08c0-.09.05-.17.05-.27v-67.81h62.85.01v72.27z" fill="#00b1ab"/></g><path d="m2008.65 136.03-555.26 424.22-555.24 89.82 511.62-341.85z" fill="#00a099"/><path d="m1954.6 1106.3c0 10.36-8.4 18.75-18.75 18.75-10.36 0-18.75-8.4-18.75-18.75s8.4-18.75 18.75-18.75 18.75 8.4 18.75 18.75z" opacity=".2"/><g><path d="m1487.22 225.16v135.51l-170.97 115.53v-275.87z" fill="#e5e5e4"/><path d="m1316.25 200.33v275.87l-68.31 10.64v-267.66z" fill="#fff"/><path d="m1497.93 193.33v54.78l-181.68-21.84v-62.24l.65-.19z" fill="#efa61f"/><path d="m1316.25 164.03v62.24l-81.85 21.84v-58.33z" fill="#f8c113"/></g><path d="m1949.89 1098.35c0 10.36-8.4 18.75-18.75 18.75s-18.75-8.4-18.75-18.75 8.4-18.75 18.75-18.75 18.75 8.39 18.75 18.75z" fill="#f8c113"/><path d="m1986.23 1373.78-17.68 1.1.35-576.15h17.33z" fill="#009e96"/><path d="m1717.05 1404.37 17.79-2.12-.44-603.52h-17.34z" fill="#009e96"/><g fill="#fff"><path d="m2237.99 835.54v16.06l-85.67 85.67v-15.96z" opacity=".51"/><path d="m2237.99 877.45v16.05l-85.67 85.67v-16.05z" opacity=".51"/><path d="m2142.89 1025.37v15.86l-85.3 85.4v-16.05z" opacity=".51"/><path d="m2142.89 1067.18v15.96l-85.3 85.3v-15.96z" opacity=".51"/></g><path d="m2048.22 813.68v386.09l199.06-9.8v-366.49zm189.73 188.39c-.01 0-.02-.01-.04-.01h-85.52v-173.93l85.55 4.21v169.73zm-94.84-174.39c0 .09-.05.16-.05.25v174.13h-85.52v-178.58zm-85.56 183.72h85.52v174.13c0 .08.04.15.05.23l-85.56 4.21v-178.57zm94.85 173.9v-173.9h85.52c.01 0 .02-.01.04-.01v169.71z" fill="#00b1ab"/></g><g><path d="m438.07 1811.14v-335.9c0-166.53 117.4-310.07 274.21-326.66 1.2-.13 2.4-.25 3.6-.37v662.93z" fill="#f9cb24"/><path d="m715.76 1148.11v663.03h-43.49v-653.74c12.96-3.93 26.21-6.79 40.03-8.57 1.16-.36 2.31-.36 3.46-.72z" fill="#eba121"/><path d="m1440.2 1113.65h461.96v662.02h-461.96z" fill="#05aea7"/><g><path d="m1561.5 1830.05c0 62.78-50.89 113.67-113.67 113.67s-113.67-50.89-113.67-113.67 50.89-113.67 113.67-113.67 113.67 50.89 113.67 113.67z" fill="#008680"/><circle cx="1447.83" cy="1830.05" fill="#00b1a9" r="74.68"/><path d="m1481.12 1830.05c0 18.39-14.91 33.29-33.29 33.29-18.39 0-33.29-14.9-33.29-33.29 0-18.38 14.9-33.29 33.29-33.29 18.38 0 33.29 14.9 33.29 33.29z" fill="#f6f8fa"/></g><g><path d="m1135.2 1830.05c0 62.78-50.89 113.67-113.67 113.67s-113.67-50.89-113.67-113.67 50.89-113.67 113.67-113.67 113.67 50.89 113.67 113.67z" fill="#008680"/><circle cx="1021.53" cy="1830.05" fill="#00b1a9" r="74.68"/><path d="m1054.82 1830.05c0 18.39-14.9 33.29-33.29 33.29s-33.29-14.9-33.29-33.29c0-18.38 14.9-33.29 33.29-33.29s33.29 14.9 33.29 33.29z" fill="#f6f8fa"/></g><path d="m1440.2 1164.28h430.13v611.4h-430.13z" fill="#037d78"/><path d="m642.23 1294.8v165.78h-141.87v-83.15c0-21.87 8.69-42.85 24.16-58.32 15.41-15.41 36.3-24.1 58.09-24.16z" fill="#fff"/><path d="m642.22 1294.81v14.56l-44.98.19c-10.92 0-21.56 2.24-31.45 6.35s-19.04 10.08-26.69 17.82c-15.49 15.4-24.17 36.4-24.17 58.33v68.5h-14.56v-83.15c0-21.84 8.68-42.84 24.17-58.33 7.65-7.65 16.8-13.72 26.69-17.82 9.8-4.1 20.53-6.25 31.36-6.25z" fill="#dddddc"/><path d="m696.33 1113.65h743.86v662.02h-743.86z" fill="#05aea7"/><path d="m696.33 1756.58h1205.82v54.57h-1205.82z" fill="#019891"/><g><path d="m680.42 1851.87c0 62.78-50.89 113.67-113.67 113.67s-113.67-50.89-113.67-113.67 50.89-113.67 113.67-113.67 113.67 50.89 113.67 113.67z" fill="#008680"/><circle cx="566.75" cy="1851.87" fill="#00b1a9" r="74.68"/><circle cx="566.75" cy="1851.87" fill="#f6f8fa" r="33.29"/></g><g><path d="m1079.18 1851.87c0 62.78-50.89 113.67-113.67 113.67s-113.67-50.89-113.67-113.67 50.89-113.67 113.67-113.67c62.77 0 113.67 50.89 113.67 113.67z" fill="#008680"/><circle cx="965.51" cy="1851.87" fill="#00b1a9" r="74.68"/><circle cx="965.51" cy="1851.87" fill="#f6f8fa" r="33.29"/></g><g><path d="m1481.12 1851.87c0 62.78-50.89 113.67-113.67 113.67s-113.67-50.89-113.67-113.67 50.89-113.67 113.67-113.67 113.67 50.89 113.67 113.67z" fill="#008680"/><circle cx="1367.45" cy="1851.87" fill="#00b1a9" r="74.68"/><circle cx="1367.45" cy="1851.87" fill="#f6f8fa" r="33.29"/></g><g><path d="m1479.89 1588.23h177.7v165.51h-177.7z" fill="#ffcf22"/><path d="m1621.38 1588.23h44.34v165.51h-44.34z" fill="#e69e23"/></g><g><path d="m1643.18 1620.74h132.99v133h-132.99z" fill="#ffcf22"/><path d="m1776.18 1620.74h31.03v133h-31.03z" fill="#e69e23"/></g><g><path d="m1586.39 1472.97h143v144.59h-143z" fill="#ffcf22" transform="matrix(.959 .285 -.285 .959 509.628 -408.69)"/><path d="m1725.51 1499.58h43.65v144.59h-43.65z" fill="#e69e23" transform="matrix(.959 .285 -.285 .959 520.856 -433.049)"/></g><path d="m571.29 1509.23h60.48v13.64h-60.48z" fill="#fff"/><g fill="#07938c"><path d="m843.65 1670.98c-12.55 0-22.73-10.18-22.73-22.74v-440.94c0-12.55 10.18-22.73 22.73-22.73 12.56 0 22.73 10.18 22.73 22.73v440.94c0 12.57-10.17 22.74-22.73 22.74z"/><path d="m998.8 1670.98c-12.56 0-22.74-10.18-22.74-22.74v-440.94c0-12.55 10.18-22.73 22.73-22.73 12.55 0 22.73 10.18 22.73 22.73v440.94c.01 12.57-10.17 22.74-22.72 22.74z"/><path d="m1153.94 1670.98c-12.55 0-22.73-10.18-22.73-22.74v-440.94c0-12.55 10.18-22.73 22.73-22.73 12.56 0 22.74 10.18 22.74 22.73v440.94c0 12.57-10.18 22.74-22.74 22.74z"/><path d="m1309.09 1670.98c-12.55 0-22.73-10.18-22.73-22.74v-440.94c0-12.55 10.18-22.73 22.73-22.73 12.56 0 22.73 10.18 22.73 22.73v440.94c.01 12.57-10.17 22.74-22.73 22.74z"/></g></g></g></svg>